<svg xmlns="http://www.w3.org/2000/svg" width="820" height="330" viewBox="0 0 820 330">
  <defs>
    <filter id="glow">
      <feGaussianBlur stdDeviation="1.5" result="blur"/>
      <feMerge>
        <feMergeNode in="blur"/>
        <feMergeNode in="SourceGraphic"/>
      </feMerge>
    </filter>
    <filter id="glow-lg">
      <feGaussianBlur stdDeviation="3" result="blur"/>
      <feMerge>
        <feMergeNode in="blur"/>
        <feMergeNode in="SourceGraphic"/>
      </feMerge>
    </filter>
  </defs>

  <!-- Background -->
  <rect width="820" height="330" rx="8" fill="#0a0a0a"/>
  <rect x="2" y="2" width="816" height="326" rx="7" fill="none" stroke="#004411" stroke-width="1.5"/>
  <rect x="6" y="6" width="808" height="318" rx="5" fill="none" stroke="#00ff41" stroke-width="1" opacity="0.25"/>

  <!-- Scanlines -->
  <pattern id="sc" patternUnits="userSpaceOnUse" width="4" height="4">
    <rect width="4" height="2" fill="#000" opacity="0.1"/>
  </pattern>
  <rect width="820" height="330" rx="8" fill="url(#sc)"/>

  <!--
    DRAGO Block Letters — pure SVG geometry, no font dependency.
    Grid: 6 cols × 5 rows per letter, cell 11×18px, 20px gap between letters.
    Letters span x=205..615 (410px), y=50..140 (90px), centered in 820px viewBox.
  -->

  <!-- Shadow layer (offset 2,2 for depth) -->
  <g fill="#002200" opacity="0.5" transform="translate(2,2)">
    <path d="M205,50h55v18h-55z M205,68h22v54h-22z M249,68h22v54h-22z M205,122h55v18h-55z"/>
    <path d="M291,50h55v18h-55z M291,68h22v72h-22z M335,68h22v18h-22z M313,86h33v18h-33z M324,104h22v18h-22z M335,122h22v18h-22z"/>
    <path d="M388,50h44v18h-44z M377,68h22v72h-22z M421,68h22v72h-22z M399,86h22v18h-22z"/>
    <path d="M474,50h55v18h-55z M463,68h22v54h-22z M496,86h33v18h-33z M507,104h22v18h-22z M474,122h55v18h-55z"/>
    <path d="M560,50h44v18h-44z M549,68h22v54h-22z M593,68h22v54h-22z M560,122h44v18h-44z"/>
  </g>

  <!-- Main DRAGO letters with glow -->
  <g filter="url(#glow-lg)" fill="#00ff41">
    <!-- D -->
    <path d="M205,50h55v18h-55z M205,68h22v54h-22z M249,68h22v54h-22z M205,122h55v18h-55z"/>
    <!-- R -->
    <path d="M291,50h55v18h-55z M291,68h22v72h-22z M335,68h22v18h-22z M313,86h33v18h-33z M324,104h22v18h-22z M335,122h22v18h-22z"/>
    <!-- A -->
    <path d="M388,50h44v18h-44z M377,68h22v72h-22z M421,68h22v72h-22z M399,86h22v18h-22z"/>
    <!-- G -->
    <path d="M474,50h55v18h-55z M463,68h22v54h-22z M496,86h33v18h-33z M507,104h22v18h-22z M474,122h55v18h-55z"/>
    <!-- O -->
    <path d="M560,50h44v18h-44z M549,68h22v54h-22z M593,68h22v54h-22z M560,122h44v18h-44z"/>
  </g>

  <!-- Separator -->
  <line x1="180" y1="170" x2="640" y2="170" stroke="#00ff41" stroke-width="1" opacity="0.35"/>
  <circle cx="180" cy="170" r="2" fill="#00ff41" opacity="0.5"/>
  <circle cx="640" cy="170" r="2" fill="#00ff41" opacity="0.5"/>

  <!-- Subtitle -->
  <g filter="url(#glow)">
    <text x="410" y="200" text-anchor="middle" font-family="'Courier New','Liberation Mono','DejaVu Sans Mono',Consolas,monospace" font-size="15" fill="#00ff41" letter-spacing="6">M O D E L   R U N N E R</text>
    <text x="410" y="222" text-anchor="middle" font-family="'Courier New','Liberation Mono','DejaVu Sans Mono',Consolas,monospace" font-size="11" fill="#00cc33" letter-spacing="3">// M A T R I X   E D I T I O N</text>
  </g>

  <!-- Tags -->
  <text x="410" y="258" text-anchor="middle" font-family="'Courier New','Liberation Mono','DejaVu Sans Mono',Consolas,monospace" font-size="12" fill="#008f11">[ LOCAL LLM INFERENCE INTERFACE ]</text>
  <text x="410" y="278" text-anchor="middle" font-family="'Courier New','Liberation Mono','DejaVu Sans Mono',Consolas,monospace" font-size="11" fill="#006622">NO CLOUD  ·  NO CENSORSHIP  ·  NO LIMITS</text>

  <!-- Bottom bar decoration -->
  <rect x="30" y="304" width="760" height="1" fill="#004411" opacity="0.5"/>
</svg>
